<svg width="67" height="10" viewBox="0 0 67 10" fill="none" xmlns="http://www.w3.org/2000/svg">
<path id="Know More" d="M5.556 9L2.508 5.268V9H0.828V0.624H2.508V4.38L5.556 0.624H7.584L4.128 4.776L7.68 9H5.556ZM12.469 2.256C13.261 2.256 13.901 2.508 14.389 3.012C14.877 3.508 15.121 4.204 15.121 5.1V9H13.441V5.328C13.441 4.8 13.309 4.396 13.045 4.116C12.781 3.828 12.421 3.684 11.965 3.684C11.501 3.684 11.133 3.828 10.861 4.116C10.597 4.396 10.465 4.8 10.465 5.328V9H8.78503V2.352H10.465V3.18C10.689 2.892 10.973 2.668 11.317 2.508C11.669 2.34 12.053 2.256 12.469 2.256ZM19.6706 9.108C19.0306 9.108 18.4546 8.968 17.9426 8.688C17.4306 8.4 17.0266 7.996 16.7306 7.476C16.4426 6.956 16.2986 6.356 16.2986 5.676C16.2986 4.996 16.4466 4.396 16.7426 3.876C17.0466 3.356 17.4586 2.956 17.9786 2.676C18.4986 2.388 19.0786 2.244 19.7186 2.244C20.3586 2.244 20.9386 2.388 21.4586 2.676C21.9786 2.956 22.3866 3.356 22.6826 3.876C22.9866 4.396 23.1386 4.996 23.1386 5.676C23.1386 6.356 22.9826 6.956 22.6706 7.476C22.3666 7.996 21.9506 8.4 21.4226 8.688C20.9026 8.968 20.3186 9.108 19.6706 9.108ZM19.6706 7.644C19.9746 7.644 20.2586 7.572 20.5226 7.428C20.7946 7.276 21.0106 7.052 21.1706 6.756C21.3306 6.46 21.4106 6.1 21.4106 5.676C21.4106 5.044 21.2426 4.56 20.9066 4.224C20.5786 3.88 20.1746 3.708 19.6946 3.708C19.2146 3.708 18.8106 3.88 18.4826 4.224C18.1626 4.56 18.0026 5.044 18.0026 5.676C18.0026 6.308 18.1586 6.796 18.4706 7.14C18.7906 7.476 19.1906 7.644 19.6706 7.644ZM33.587 2.352L31.643 9H29.831L28.619 4.356L27.407 9H25.583L23.627 2.352H25.331L26.507 7.416L27.779 2.352H29.555L30.803 7.404L31.979 2.352H33.587ZM46.4873 0.624V9H44.8073V3.552L42.5633 9H41.2913L39.0353 3.552V9H37.3553V0.624H39.2633L41.9273 6.852L44.5913 0.624H46.4873ZM51.1003 9.108C50.4603 9.108 49.8843 8.968 49.3723 8.688C48.8603 8.4 48.4563 7.996 48.1603 7.476C47.8723 6.956 47.7283 6.356 47.7283 5.676C47.7283 4.996 47.8763 4.396 48.1723 3.876C48.4763 3.356 48.8883 2.956 49.4083 2.676C49.9283 2.388 50.5083 2.244 51.1483 2.244C51.7883 2.244 52.3683 2.388 52.8883 2.676C53.4083 2.956 53.8163 3.356 54.1123 3.876C54.4163 4.396 54.5683 4.996 54.5683 5.676C54.5683 6.356 54.4123 6.956 54.1003 7.476C53.7963 7.996 53.3803 8.4 52.8523 8.688C52.3323 8.968 51.7483 9.108 51.1003 9.108ZM51.1003 7.644C51.4043 7.644 51.6883 7.572 51.9523 7.428C52.2243 7.276 52.4403 7.052 52.6003 6.756C52.7603 6.46 52.8403 6.1 52.8403 5.676C52.8403 5.044 52.6723 4.56 52.3363 4.224C52.0083 3.88 51.6043 3.708 51.1243 3.708C50.6443 3.708 50.2403 3.88 49.9123 4.224C49.5923 4.56 49.4323 5.044 49.4323 5.676C49.4323 6.308 49.5883 6.796 49.9003 7.14C50.2203 7.476 50.6203 7.644 51.1003 7.644ZM57.4807 3.384C57.6967 3.032 57.9767 2.756 58.3207 2.556C58.6727 2.356 59.0727 2.256 59.5207 2.256V4.02H59.0767C58.5487 4.02 58.1487 4.144 57.8767 4.392C57.6127 4.64 57.4807 5.072 57.4807 5.688V9H55.8007V2.352H57.4807V3.384ZM66.8322 5.532C66.8322 5.772 66.8162 5.988 66.7842 6.18H61.9242C61.9642 6.66 62.1322 7.036 62.4282 7.308C62.7242 7.58 63.0882 7.716 63.5202 7.716C64.1442 7.716 64.5882 7.448 64.8522 6.912H66.6642C66.4722 7.552 66.1042 8.08 65.5602 8.496C65.0162 8.904 64.3482 9.108 63.5562 9.108C62.9162 9.108 62.3402 8.968 61.8282 8.688C61.3242 8.4 60.9282 7.996 60.6402 7.476C60.3602 6.956 60.2202 6.356 60.2202 5.676C60.2202 4.988 60.3602 4.384 60.6402 3.864C60.9202 3.344 61.3122 2.944 61.8162 2.664C62.3202 2.384 62.9002 2.244 63.5562 2.244C64.1882 2.244 64.7522 2.38 65.2482 2.652C65.7522 2.924 66.1402 3.312 66.4122 3.816C66.6922 4.312 66.8322 4.884 66.8322 5.532ZM65.0922 5.052C65.0842 4.62 64.9282 4.276 64.6242 4.02C64.3202 3.756 63.9482 3.624 63.5082 3.624C63.0922 3.624 62.7402 3.752 62.4522 4.008C62.1722 4.256 62.0002 4.604 61.9362 5.052H65.0922Z" fill="black"/>
</svg>
