<svg width="32" height="32" viewBox="0 0 32 32" fill="none" xmlns="http://www.w3.org/2000/svg">
<path id="primary" d="M16 2V3.55556M30 6.55778L28.5941 7.66222M2 6.55778L3.40594 7.66222M25.901 17.5556C25.894 15.6224 24.9707 13.7606 23.3113 12.3331C21.6519 10.9056 19.3752 10.0147 16.9251 9.83404C14.475 9.65342 12.0271 10.196 10.0586 11.3561C8.09003 12.5162 6.74199 14.2105 6.27723 16.1089C6.01059 17.1967 6.04966 18.3172 6.3917 19.392C6.73373 20.4667 7.37048 21.4698 8.25743 22.3311C9.42679 23.4486 10.064 24.8512 10.0594 26.2978V28.4444C10.0594 28.857 10.268 29.2527 10.6394 29.5444C11.0108 29.8361 11.5144 30 12.0396 30H19.9604C20.4856 30 20.9893 29.8361 21.3606 29.5444C21.732 29.2527 21.9406 28.857 21.9406 28.4444V26.2978C21.9379 24.8804 22.5608 23.5061 23.703 22.4089C25.1261 21.0386 25.9026 19.324 25.901 17.5556V17.5556Z" stroke="#35E458" stroke-width="4" stroke-linecap="round" stroke-linejoin="round"/>
</svg>
